<svg id="Layer_2" data-name="Layer 2" xmlns="http://www.w3.org/2000/svg">

  <g>
    <g>
      <path class="vrl-logo-icon" d="m239.61,89.58c-3.7,1.88-19.93,9.03-43.12,2.94-14.77-3.88-24.65-10.38-32.76-17.67l-11.77,14.22c9.55,8.46,21.84,16.57,39.84,21.29,8.25,2.17,15.86,2.99,22.68,2.99,1.98,0,3.86-.09,5.7-.21-6.64,8.04-13.09,15.87-19.16,23.22-.03.04-.06.08-.09.11-20.86,2.3-41.67-6.15-55.02-22.54-2.62-3.22-7.68-9.4-13.12-16.04L198.2,18.44h99.77c-13.33,16.42-35.61,43.53-58.36,71.14h0Zm-71.82,87.08c-5.02,6.11-11.92,9.62-18.92,9.62s-13.61-3.1-18.05-8.51l-31.84-38.8,15.91-19.32-11.94-14.51-15.89,19.3L29.58,54.41h12.68c24.5.15,38.83,10.92,55.17,29.44.65.79,32.31,39.41,34.18,41.71,13.62,16.73,33.23,27.08,54.16,29.28-7.23,8.76-13.41,16.25-17.98,21.82h0Zm-51.53-122.24l16.15,14.91-11.54,14.02-.04-.05c-5.23-6.37-9.15-11.15-9.25-11.27l-.21-.24c-5.74-6.52-11.5-12.36-17.61-17.36h22.5ZM184.33,6.28l-40.1,48.71-16.14-14.57c-3.16-2.86-7.28-4.44-11.54-4.44H8.63c-7.28-.01-11.28,8.47-6.65,14.08,36.24,43.9,104.3,126.91,114.59,139.42,7.97,9.69,19.74,15.24,32.3,15.24s24.63-5.96,33.17-16.35c5.68-6.91,108.26-131.75,143.23-174.31,4.62-5.62.61-14.07-6.66-14.07h-120.98c-5.15,0-10.03,2.3-13.3,6.28h0Z"/>
    </g>
  </g>
</svg>